<svg xmlns="http://www.w3.org/2000/svg" width="82" height="27" viewBox="0 0 82 27" fill="none">
  <path d="M29.1935 15.2802C28.8315 14.5442 28.3466 13.8754 27.7598 13.3024C27.4588 13.0282 27.1199 12.7405 26.7453 12.444L27.1712 12.143C27.82 11.7416 28.3284 10.9478 28.732 9.71259C29.0138 8.82034 29.09 7.87588 28.9549 6.94999C28.8315 6.07777 28.5448 5.23662 28.1099 4.47056C27.7125 3.76054 27.17 3.14214 26.5179 2.65558C25.897 2.20576 25.2041 1.86495 24.4688 1.64775C23.706 1.42138 22.9143 1.30794 22.1187 1.31107H22.0139V0H19.0417V1.31107H13.318L7.85971 11.2176H4.00009V14.7272H5.92209L0.22297 25.0596L0 25.4811H2.90307L8.83409 14.7227H13.8911V25.4877H19.0417V26.7966H22.0049V25.4811C23.4632 25.4498 24.6271 25.3004 25.4677 25.0351C26.3929 24.7529 27.235 24.2484 27.9204 23.5657C28.4951 23.0052 28.9688 22.3497 29.3206 21.6281C29.7557 20.6233 29.9606 19.5339 29.9204 18.4396C29.9326 17.3437 29.6834 16.2606 29.1935 15.2802ZM26.7609 19.6905C26.636 20.7519 26.2503 21.4966 25.6148 21.9046C24.9804 22.3293 24.2629 22.6143 23.51 22.7407C22.6523 22.8575 21.7867 22.906 20.9213 22.8857H16.7451V14.58H21.9068C22.5915 14.5851 23.2755 14.626 23.9559 14.7027C24.467 14.784 24.9439 15.0108 25.3294 15.356C25.8028 15.7507 26.1834 16.2447 26.4443 16.803C26.7899 17.5812 26.8947 18.5489 26.7609 19.6905ZM16.7451 11.2176V3.96441H21.6214C22.198 3.9679 22.7727 4.03142 23.3361 4.15394C23.856 4.25737 24.3535 4.45214 24.8055 4.7292C25.2439 5.04142 25.5874 5.46897 25.7977 5.96446C26.0866 6.65261 26.1859 7.40558 26.0853 8.14511C26.0438 8.82231 25.7973 9.47086 25.3785 10.0047C24.9844 10.4547 24.465 10.7769 23.8868 10.93C23.1246 11.1314 22.3384 11.2281 21.5501 11.2176H16.7451ZM10.7695 11.2176L13.8911 5.55419V11.2176H10.7695Z" fill="white"/>
  <path d="M82.0007 19.55C81.5998 19.5432 81.2533 19.6282 80.9611 19.8048C80.6757 19.9747 80.4548 20.216 80.2985 20.5285C80.1422 20.8343 80.0641 21.1945 80.0641 21.609L79.7889 21.5784C79.7889 20.994 79.8772 20.498 80.0539 20.0902C80.2306 19.6825 80.4854 19.3699 80.8184 19.1525C81.1513 18.935 81.5455 18.8263 82.0007 18.8263V19.55ZM79.2792 18.8467H80.0743V24.2082H79.2792V18.8467Z" fill="white"/>
  <path d="M75.1596 18.8263C75.6897 18.8263 76.1585 18.9418 76.5662 19.1729C76.9808 19.3971 77.3035 19.7131 77.5346 20.1208C77.7656 20.5285 77.8811 20.9974 77.8811 21.5274C77.8811 22.0575 77.7656 22.5263 77.5346 22.9341C77.3035 23.3418 76.9808 23.6612 76.5662 23.8922C76.1585 24.1164 75.6897 24.2286 75.1596 24.2286C74.6296 24.2286 74.1573 24.1164 73.7428 23.8922C73.3351 23.6612 73.0157 23.3418 72.7847 22.9341C72.5536 22.5263 72.4381 22.0575 72.4381 21.5274C72.4381 20.9974 72.5536 20.5285 72.7847 20.1208C73.0157 19.7131 73.3351 19.3971 73.7428 19.1729C74.1573 18.9418 74.6296 18.8263 75.1596 18.8263ZM75.1596 19.4889C74.7859 19.4889 74.4529 19.5772 74.1607 19.7539C73.8685 19.9238 73.6409 20.1616 73.4778 20.4674C73.3147 20.7732 73.2332 21.1265 73.2332 21.5274C73.2332 21.9352 73.3147 22.2953 73.4778 22.6079C73.6409 22.9137 73.8685 23.1549 74.1607 23.3316C74.4529 23.5015 74.7859 23.5864 75.1596 23.5864C75.5402 23.5864 75.8731 23.5015 76.1585 23.3316C76.4507 23.1549 76.6784 22.9137 76.8415 22.6079C77.0045 22.2953 77.0861 21.9352 77.0861 21.5274C77.0861 21.1265 77.0045 20.7732 76.8415 20.4674C76.6784 20.1616 76.4507 19.9238 76.1585 19.7539C75.8731 19.5772 75.5402 19.4889 75.1596 19.4889Z" fill="white"/>
  <path d="M70.0748 22.5977C70.0748 22.9375 70.1359 23.1821 70.2583 23.3316C70.3806 23.4743 70.5573 23.5456 70.7883 23.5456C70.9242 23.5388 71.0635 23.5151 71.2062 23.4743C71.3489 23.4267 71.495 23.3554 71.6445 23.2602L71.8687 23.8412C71.6853 23.9636 71.4882 24.0621 71.2776 24.1368C71.0737 24.2048 70.8664 24.2388 70.6558 24.2388C70.3908 24.2388 70.1563 24.1878 69.9525 24.0859C69.7486 23.9771 69.5855 23.8107 69.4632 23.5864C69.3477 23.3622 69.2899 23.0734 69.2899 22.72V17.6235H70.0748V22.5977ZM68.5153 19.0098H71.777V19.601H68.5153V19.0098Z" fill="white"/>
  <path d="M64.8647 21.6905C64.4162 21.6905 64.0764 21.7653 63.8454 21.9148C63.6144 22.0643 63.4988 22.2919 63.4988 22.5977C63.4988 22.9035 63.6076 23.1515 63.825 23.3418C64.0493 23.5253 64.3516 23.617 64.7322 23.617C65.0448 23.617 65.3268 23.566 65.5782 23.4641C65.8296 23.3622 66.0369 23.2161 66.2 23.0258C66.3698 22.8355 66.4854 22.6045 66.5465 22.3327L66.7504 22.9748C66.5601 23.4029 66.2781 23.7223 65.9044 23.933C65.5306 24.1368 65.0889 24.2388 64.5793 24.2388C64.2123 24.2388 63.8896 24.1674 63.611 24.0247C63.3391 23.882 63.1285 23.6883 62.979 23.4437C62.8295 23.1991 62.7548 22.9239 62.7548 22.6181C62.7548 22.156 62.9314 21.7891 63.2848 21.5172C63.6381 21.2454 64.1308 21.1061 64.7628 21.0993H66.6688V21.6905H64.8647ZM66.5261 20.7426C66.5261 20.3349 66.4038 20.0189 66.1592 19.7946C65.9214 19.5704 65.5646 19.4583 65.0889 19.4583C64.7899 19.4583 64.5011 19.5126 64.2225 19.6214C63.9439 19.7301 63.6653 19.883 63.3867 20.08L63.0503 19.5602C63.2814 19.4039 63.5056 19.2714 63.7231 19.1627C63.9405 19.054 64.1716 18.9724 64.4162 18.9181C64.6608 18.8569 64.936 18.8263 65.2418 18.8263C65.9078 18.8263 66.4174 18.9928 66.7708 19.3258C67.1241 19.6519 67.3042 20.1004 67.311 20.6712L67.3212 24.2082H66.5465L66.5261 20.7426Z" fill="white"/>
  <path d="M62.4013 19.55C62.0003 19.5432 61.6538 19.6282 61.3616 19.8048C61.0762 19.9747 60.8553 20.216 60.699 20.5285C60.5428 20.8343 60.4646 21.1945 60.4646 21.609L60.1894 21.5784C60.1894 20.994 60.2777 20.498 60.4544 20.0902C60.6311 19.6825 60.8859 19.3699 61.2189 19.1525C61.5519 18.935 61.946 18.8263 62.4013 18.8263V19.55ZM59.6798 18.8467H60.4748V24.2082H59.6798V18.8467Z" fill="white"/>
  <path d="M57.6015 21.2115C57.5879 20.8513 57.503 20.5421 57.3467 20.2839C57.1972 20.0189 56.9899 19.815 56.7249 19.6723C56.4667 19.5296 56.1609 19.4583 55.8076 19.4583C55.4338 19.4583 55.1042 19.5432 54.8188 19.7131C54.5402 19.883 54.3194 20.1208 54.1563 20.4266C53.9932 20.7324 53.9117 21.0891 53.9117 21.4969C53.9117 21.9182 53.9932 22.2885 54.1563 22.6079C54.3262 22.9205 54.5606 23.1651 54.8596 23.3418C55.1586 23.5185 55.4984 23.6068 55.8789 23.6068C56.5584 23.6068 57.1122 23.3758 57.5403 22.9137L57.9786 23.352C57.7204 23.6306 57.4078 23.848 57.0409 24.0043C56.674 24.1538 56.2696 24.2286 55.8279 24.2286C55.2979 24.2286 54.829 24.1164 54.4213 23.8922C54.0204 23.6612 53.7078 23.3418 53.4836 22.9341C53.2593 22.5263 53.1472 22.0575 53.1472 21.5274C53.1472 20.9974 53.2593 20.5319 53.4836 20.131C53.7078 19.7233 54.0204 19.4073 54.4213 19.1831C54.829 18.952 55.2911 18.8331 55.8076 18.8263C56.3852 18.8263 56.8642 18.952 57.2448 19.2035C57.6253 19.4481 57.9039 19.7946 58.0806 20.2431C58.264 20.6848 58.3388 21.2047 58.3048 21.8026H53.769V21.2115H57.6015Z" fill="white"/>
  <path d="M51.1163 21.0993C51.1163 20.6101 50.9804 20.2295 50.7085 19.9577C50.4435 19.6791 50.0732 19.5398 49.5975 19.5398C49.0267 19.5466 48.5816 19.7403 48.2622 20.1208C47.9429 20.4946 47.7832 20.9804 47.7832 21.5784H47.508C47.508 20.9532 47.6031 20.4402 47.7934 20.0393C47.9836 19.6316 48.2554 19.3292 48.6088 19.1321C48.9689 18.9282 49.3903 18.8263 49.8727 18.8263C50.3008 18.8263 50.6678 18.9113 50.9736 19.0811C51.2793 19.251 51.5104 19.4923 51.6667 19.8048C51.8298 20.1106 51.9113 20.481 51.9113 20.9159V24.2082H51.1163V21.0993ZM46.9983 18.8467H47.7934V24.2082H46.9983V18.8467Z" fill="white"/>
  <path d="M44.9201 21.2115C44.9065 20.8513 44.8215 20.5421 44.6652 20.2839C44.5157 20.0189 44.3085 19.815 44.0435 19.6723C43.7853 19.5296 43.4795 19.4583 43.1261 19.4583C42.7524 19.4583 42.4228 19.5432 42.1374 19.7131C41.8588 19.883 41.6379 20.1208 41.4749 20.4266C41.3118 20.7324 41.2302 21.0891 41.2302 21.4969C41.2302 21.9182 41.3118 22.2885 41.4749 22.6079C41.6447 22.9205 41.8792 23.1651 42.1782 23.3418C42.4772 23.5185 42.8169 23.6068 43.1975 23.6068C43.877 23.6068 44.4308 23.3758 44.8589 22.9137L45.2972 23.352C45.039 23.6306 44.7264 23.848 44.3595 24.0043C43.9925 24.1538 43.5882 24.2286 43.1465 24.2286C42.6165 24.2286 42.1476 24.1164 41.7399 23.8922C41.339 23.6612 41.0264 23.3418 40.8021 22.9341C40.5779 22.5263 40.4658 22.0575 40.4658 21.5274C40.4658 20.9974 40.5779 20.5319 40.8021 20.131C41.0264 19.7233 41.339 19.4073 41.7399 19.1831C42.1476 18.952 42.6097 18.8331 43.1261 18.8263C43.7037 18.8263 44.1828 18.952 44.5633 19.2035C44.9439 19.4481 45.2225 19.7946 45.3991 20.2431C45.5826 20.6848 45.6574 21.2047 45.6234 21.8026H41.0875V21.2115H44.9201Z" fill="white"/>
  <path d="M38.6929 18.5511C38.4075 18.2861 38.0745 18.0788 37.694 17.9293C37.3203 17.7798 36.9329 17.7051 36.532 17.7051C36.1243 17.7051 35.7438 17.7832 35.3904 17.9395C35.037 18.089 34.7245 18.2997 34.4527 18.5715C34.1808 18.8365 33.9702 19.1457 33.8207 19.499C33.6712 19.8456 33.5964 20.2227 33.5964 20.6305C33.5964 21.0382 33.6712 21.4187 33.8207 21.7721C33.9702 22.1254 34.1808 22.438 34.4527 22.7098C34.7245 22.9816 35.037 23.1957 35.3904 23.352C35.7438 23.5015 36.1277 23.5762 36.5422 23.5762C36.9159 23.5762 37.2897 23.5049 37.6634 23.3622C38.0372 23.2127 38.3701 23.0156 38.6623 22.771L39.1414 23.3316C38.9104 23.5151 38.6487 23.6782 38.3565 23.8209C38.0643 23.9636 37.7586 24.0757 37.4392 24.1572C37.1266 24.232 36.8106 24.2693 36.4912 24.2693C35.968 24.2693 35.4821 24.1776 35.0336 23.9941C34.5852 23.8039 34.191 23.5422 33.8513 23.2093C33.5115 22.8763 33.2465 22.489 33.0562 22.0473C32.866 21.6056 32.7708 21.1333 32.7708 20.6305C32.7708 20.1276 32.866 19.6587 33.0562 19.2238C33.2533 18.7889 33.5217 18.405 33.8615 18.072C34.208 17.7391 34.6089 17.4808 35.0642 17.2974C35.5195 17.1139 36.0088 17.0222 36.532 17.0222C36.8582 17.0222 37.1776 17.0629 37.4901 17.1445C37.8095 17.2192 38.1085 17.328 38.3871 17.4707C38.6725 17.6134 38.9307 17.7866 39.1618 17.9905L38.6929 18.5511ZM38.4177 20.7222H39.1414V23.3316H38.4177V20.7222Z" fill="white"/>
  <path d="M56.8558 10.1114C56.8558 10.4511 56.917 10.6958 57.0393 10.8453C57.1616 10.988 57.3383 11.0593 57.5693 11.0593C57.7052 11.0525 57.8445 11.0287 57.9872 10.988C58.1299 10.9404 58.276 10.869 58.4255 10.7739L58.6498 11.3549C58.4663 11.4772 58.2693 11.5757 58.0586 11.6505C57.8547 11.7184 57.6475 11.7524 57.4368 11.7524C57.1718 11.7524 56.9374 11.7015 56.7335 11.5995C56.5297 11.4908 56.3666 11.3243 56.2443 11.1001C56.1287 10.8758 56.071 10.587 56.071 10.2337V5.13721H56.8558V10.1114ZM55.2963 6.52345H58.5581V7.11464H55.2963V6.52345Z" fill="white"/>
  <path d="M53.7991 8.72512C53.7855 8.36497 53.7005 8.05579 53.5442 7.79756C53.3947 7.53255 53.1875 7.32869 52.9225 7.18599C52.6643 7.04329 52.3585 6.97194 52.0051 6.97194C51.6314 6.97194 51.3018 7.05688 51.0164 7.22676C50.7378 7.39664 50.5169 7.63448 50.3539 7.94027C50.1908 8.24605 50.1092 8.60281 50.1092 9.01052C50.1092 9.43183 50.1908 9.80218 50.3539 10.1216C50.5237 10.4341 50.7582 10.6788 51.0572 10.8554C51.3562 11.0321 51.6959 11.1205 52.0765 11.1205C52.756 11.1205 53.3098 10.8894 53.7379 10.4273L54.1762 10.8656C53.918 11.1442 53.6054 11.3617 53.2385 11.518C52.8715 11.6675 52.4672 11.7422 52.0255 11.7422C51.4955 11.7422 51.0266 11.6301 50.6189 11.4059C50.218 11.1748 49.9054 10.8554 49.6811 10.4477C49.4569 10.04 49.3448 9.57114 49.3448 9.0411C49.3448 8.51107 49.4569 8.04559 49.6811 7.64467C49.9054 7.23695 50.218 6.92097 50.6189 6.69673C51.0266 6.46569 51.4887 6.34677 52.0051 6.33998C52.5827 6.33998 53.0618 6.46569 53.4423 6.71711C53.8228 6.96174 54.1015 7.3083 54.2781 7.75679C54.4616 8.19849 54.5364 8.71833 54.5024 9.31631H49.9665V8.72512H53.7991Z" fill="white"/>
  <path d="M48.0999 7.37965C47.8893 7.25054 47.6549 7.14862 47.3966 7.07387C47.1384 6.99912 46.887 6.96175 46.6424 6.96175C46.3434 6.96175 46.0919 7.0229 45.8881 7.14522C45.6842 7.26074 45.5823 7.45101 45.5823 7.71602C45.5823 7.91988 45.6536 8.08297 45.7963 8.20528C45.9458 8.3208 46.1327 8.41933 46.357 8.50088C46.588 8.57563 46.8292 8.65037 47.0807 8.72512C47.3321 8.79987 47.5733 8.895 47.8044 9.01052C48.0354 9.11925 48.2223 9.27214 48.365 9.46921C48.5077 9.66627 48.579 9.92449 48.579 10.2439C48.579 10.5904 48.4839 10.8758 48.2936 11.1001C48.1101 11.3175 47.8689 11.4806 47.5699 11.5893C47.2777 11.6913 46.9583 11.7422 46.6118 11.7422C46.2312 11.7422 45.8575 11.6777 45.4906 11.5486C45.1236 11.4195 44.811 11.236 44.5528 10.9981L44.8586 10.4579C45.0896 10.6686 45.3648 10.8351 45.6842 10.9574C46.0104 11.0729 46.3298 11.1307 46.6424 11.1307C46.853 11.1307 47.0433 11.1035 47.2132 11.0491C47.3898 10.988 47.5291 10.8996 47.6311 10.7841C47.7398 10.6618 47.7942 10.5089 47.7942 10.3254C47.801 10.1012 47.733 9.92789 47.5903 9.80557C47.4544 9.67646 47.2709 9.57114 47.0399 9.48959C46.8156 9.40805 46.5744 9.3299 46.3162 9.25515C46.0648 9.18041 45.8235 9.08867 45.5925 8.97995C45.3682 8.86443 45.1848 8.71493 45.0421 8.53146C44.8994 8.34119 44.828 8.08636 44.828 7.76699C44.828 7.43402 44.9164 7.16221 45.093 6.95155C45.2697 6.7409 45.4974 6.58461 45.776 6.48268C46.0614 6.38075 46.3671 6.32978 46.6933 6.32978C47.0127 6.32978 47.3219 6.37395 47.6209 6.46229C47.9199 6.54383 48.1815 6.65935 48.4057 6.80885L48.0999 7.37965Z" fill="white"/>
  <path d="M43.4813 7.37965C43.2706 7.25054 43.0362 7.14862 42.778 7.07387C42.5197 6.99912 42.2683 6.96175 42.0237 6.96175C41.7247 6.96175 41.4733 7.0229 41.2694 7.14522C41.0656 7.26074 40.9636 7.45101 40.9636 7.71602C40.9636 7.91988 41.035 8.08297 41.1777 8.20528C41.3272 8.3208 41.514 8.41933 41.7383 8.50088C41.9693 8.57563 42.2106 8.65037 42.462 8.72512C42.7134 8.79987 42.9546 8.895 43.1857 9.01052C43.4167 9.11925 43.6036 9.27214 43.7463 9.46921C43.889 9.66627 43.9603 9.92449 43.9603 10.2439C43.9603 10.5904 43.8652 10.8758 43.6749 11.1001C43.4915 11.3175 43.2502 11.4806 42.9512 11.5893C42.659 11.6913 42.3397 11.7422 41.9931 11.7422C41.6126 11.7422 41.2388 11.6777 40.8719 11.5486C40.5049 11.4195 40.1924 11.236 39.9341 10.9981L40.2399 10.4579C40.471 10.6686 40.7462 10.8351 41.0656 10.9574C41.3917 11.0729 41.7111 11.1307 42.0237 11.1307C42.2343 11.1307 42.4246 11.1035 42.5945 11.0491C42.7712 10.988 42.9105 10.8996 43.0124 10.7841C43.1211 10.6618 43.1755 10.5089 43.1755 10.3254C43.1823 10.1012 43.1143 9.92789 42.9716 9.80557C42.8357 9.67646 42.6523 9.57114 42.4212 9.48959C42.197 9.40805 41.9557 9.3299 41.6975 9.25515C41.4461 9.18041 41.2049 9.08867 40.9738 8.97995C40.7496 8.86443 40.5661 8.71493 40.4234 8.53146C40.2807 8.34119 40.2093 8.08636 40.2093 7.76699C40.2093 7.43402 40.2977 7.16221 40.4744 6.95155C40.651 6.7409 40.8787 6.58461 41.1573 6.48268C41.4427 6.38075 41.7485 6.32978 42.0747 6.32978C42.394 6.32978 42.7032 6.37395 43.0022 6.46229C43.3012 6.54383 43.5628 6.65935 43.7871 6.80885L43.4813 7.37965Z" fill="white"/>
  <path d="M35.6044 4.58679H36.4403L39.6307 11.7218H38.7541L36.002 5.42261L33.2703 11.7218H32.4141L35.6044 4.58679ZM33.8207 9.16342H38.1527V9.86673H33.8207V9.16342Z" fill="white"/>
</svg>